<?xml version="1.0" standalone="no"?>
<!DOCTYPE svg PUBLIC "-//W3C//DTD SVG 20010904//EN"
 "http://www.w3.org/TR/2001/REC-SVG-20010904/DTD/svg10.dtd">
<svg version="1.0" xmlns="http://www.w3.org/2000/svg"
 width="389.000000pt" height="373.000000pt" viewBox="0 0 389.000000 373.000000"
 preserveAspectRatio="xMidYMid meet">
<metadata>
Created by potrace 1.16, written by Peter Selinger 2001-2019
</metadata>
<g transform="translate(0.000000,373.000000) scale(0.100000,-0.100000)"
fill="#000000" stroke="none">
<path d="M1755 3630 c-16 -4 -59 -20 -94 -34 -36 -14 -74 -26 -85 -26 -23 -1
-65 -34 -90 -72 -12 -19 -28 -27 -61 -31 -27 -3 -59 -15 -80 -31 -19 -15 -35
-22 -35 -17 0 6 -8 11 -17 11 -15 0 -16 -2 -3 -10 14 -9 7 -14 -13 -11 -5 1
-6 -3 -2 -8 3 -6 -3 -18 -15 -28 -11 -10 -20 -23 -20 -29 0 -7 -7 -14 -15 -18
-25 -9 -17 21 13 50 15 15 20 23 12 19 -8 -4 -26 -19 -40 -32 -14 -13 -41 -37
-61 -53 -22 -18 -50 -59 -74 -107 -20 -43 -43 -89 -50 -103 -20 -39 -58 -227
-53 -263 10 -64 57 -226 82 -278 14 -29 26 -59 26 -66 0 -8 4 -12 9 -8 5 3 12
1 16 -5 3 -5 1 -10 -6 -10 -7 0 -5 -6 6 -13 14 -11 16 -21 11 -43 -15 -57 -25
-171 -25 -278 -1 -60 1 -107 3 -105 2 2 6 66 9 143 4 76 8 141 11 143 3 3 8
-11 11 -30 9 -48 72 -135 130 -179 70 -53 165 -81 230 -69 28 5 64 14 80 20
l30 11 -24 -19 c-14 -10 -43 -23 -65 -27 l-41 -8 35 -4 c33 -5 34 -5 10 -12
-23 -7 -22 -8 10 -10 81 -6 93 -2 142 53 30 32 50 65 54 87 4 19 13 43 21 52
9 10 13 24 9 33 -3 9 -2 14 3 11 5 -3 12 1 15 10 9 23 7 31 -3 15 -6 -9 -7 8
-4 46 8 88 -2 131 -32 139 -18 4 -32 0 -49 -17 -13 -12 -32 -23 -42 -24 -11
-1 -44 -5 -75 -9 -54 -7 -56 -6 -97 31 -23 21 -42 41 -42 45 0 4 -13 22 -30
40 -16 18 -30 37 -30 43 0 6 -13 26 -30 45 -16 19 -29 41 -30 48 0 6 -5 12
-11 12 -8 0 -8 4 1 14 6 8 37 20 68 27 106 22 236 -17 308 -93 46 -47 94 -125
94 -151 0 -22 48 -23 56 -2 11 27 -7 86 -32 112 -13 13 -24 27 -24 31 0 3 -10
16 -23 27 -27 23 -76 92 -59 81 7 -4 12 -3 12 2 0 11 -55 88 -69 96 -18 12
-285 14 -306 3 -11 -5 -28 -20 -37 -31 -10 -12 -22 -27 -28 -33 -6 -7 -15 -13
-20 -13 -16 0 -11 19 10 40 11 11 20 23 21 28 0 4 18 21 39 38 27 22 60 36
105 45 45 9 66 18 70 30 7 21 76 38 133 32 27 -3 42 -1 42 6 0 6 11 11 25 11
14 0 25 -4 25 -9 0 -5 13 -7 29 -5 16 3 32 0 35 -5 5 -7 16 -7 34 0 15 6 85
10 156 10 142 0 198 -12 289 -61 31 -16 71 -30 90 -30 18 0 57 -7 87 -16 30
-8 77 -19 104 -24 66 -12 91 -32 109 -82 57 -170 70 -214 71 -253 0 -25 5 -45
9 -45 15 0 46 45 36 51 -6 3 0 32 15 70 15 39 31 112 40 187 16 123 13 189
-14 305 -5 23 -10 60 -10 83 0 22 -7 63 -15 91 -16 55 -107 183 -130 183 -8 0
-15 4 -15 9 0 5 -16 15 -35 21 -19 6 -35 16 -35 22 0 6 -7 7 -16 4 -8 -3 -12
-2 -9 4 3 6 2 10 -4 10 -6 0 -13 11 -17 25 -3 13 -12 29 -20 36 -10 8 -10 3 2
-21 9 -17 14 -33 12 -36 -9 -8 -49 39 -44 52 8 20 -34 40 -46 23 -8 -11 -9
-10 -5 2 4 12 -4 19 -31 27 -73 21 -128 31 -159 28 -18 -1 -56 -3 -84 -4 -30
-1 -48 -6 -44 -12 3 -5 -1 -10 -10 -10 -9 0 -13 5 -10 10 4 6 -5 10 -20 10
-15 0 -34 4 -43 9 -9 4 -53 10 -97 13 -44 3 -68 3 -52 1 33 -5 36 -23 4 -23
-13 0 -27 -3 -30 -6 -4 -4 -24 -8 -46 -10 -33 -3 -39 -1 -34 12 5 13 7 13 14
2 7 -10 9 -9 9 4 0 9 12 21 28 26 34 13 2 14 -43 2z"/>
<path d="M2118 2757 c-16 -6 -30 -19 -34 -29 -3 -10 -9 -18 -13 -18 -12 0 -32
-50 -25 -61 3 -6 -10 -37 -30 -70 -25 -41 -36 -73 -36 -99 0 -61 36 -61 55 0
12 39 60 104 99 134 66 50 138 68 246 62 112 -6 116 -7 157 -29 l32 -17 -17
30 c-9 16 -22 30 -28 30 -7 0 -14 7 -18 15 -7 18 -50 38 -91 41 -16 2 -48 6
-70 9 -75 12 -200 14 -227 2z"/>
<path d="M2038 2448 c-14 -49 -17 -149 -5 -193 8 -29 8 -29 -12 5 l-20 35 -1
-28 c0 -15 9 -46 21 -69 11 -22 22 -48 24 -58 5 -26 54 -97 71 -104 8 -3 14
-12 14 -21 0 -8 5 -15 11 -15 6 0 9 7 5 15 -3 9 0 15 9 15 8 0 15 5 15 11 0 6
8 8 18 5 18 -6 13 -2 -47 41 -29 22 -81 75 -81 85 0 3 24 -17 53 -45 43 -42
68 -57 128 -76 87 -27 133 -24 216 16 53 25 158 127 148 143 -3 5 -1 11 5 15
34 21 50 125 29 198 -8 29 -15 37 -34 37 -13 0 -27 -5 -30 -10 -4 -6 -12 -10
-18 -9 -39 5 -58 -2 -55 -18 2 -10 10 -17 16 -15 17 3 27 -27 14 -40 -8 -8
-121 -12 -184 -6 -31 3 0 26 45 33 23 4 52 15 64 25 l23 18 -38 5 c-29 3 -43
-1 -62 -18 -14 -12 -50 -27 -80 -33 -30 -6 -59 -11 -65 -12 -36 -8 -62 5 -110
55 -30 30 -59 55 -64 55 -6 0 -16 -19 -23 -42z"/>
<path d="M782 2365 c-7 -14 -14 -51 -17 -83 -11 -110 -13 -117 -48 -137 -77
-46 -168 -107 -164 -112 3 -2 28 7 56 22 29 14 57 23 63 19 7 -4 8 -3 4 4 -4
7 -2 12 4 12 6 0 8 5 5 10 -3 6 3 10 14 10 27 0 38 -42 21 -78 -20 -42 -21
-72 -2 -65 13 6 15 -6 10 -93 -4 -66 -2 -87 3 -64 5 19 8 71 8 115 -1 51 8
126 25 210 26 129 43 255 34 255 -3 0 -10 -11 -16 -25z"/>
<path d="M1095 1960 c3 -19 9 -67 14 -105 5 -43 17 -87 32 -113 21 -37 22 -44
9 -52 -13 -8 -13 -10 1 -10 21 0 27 -15 35 -94 l6 -63 -27 -6 c-31 -5 -104 17
-118 36 -5 8 -7 5 -5 -8 3 -21 107 -83 141 -84 9 -1 25 -10 34 -21 10 -11 23
-20 30 -20 21 0 4 -25 -25 -38 -15 -7 -40 -20 -56 -29 -27 -14 -33 -14 -82 1
-39 12 -52 21 -47 31 3 8 0 15 -7 15 -15 0 -73 -61 -65 -68 3 -3 11 0 17 6 7
7 18 12 24 12 23 0 -5 -58 -29 -63 -12 -2 38 -4 112 -3 l134 1 9 -35 c5 -19
13 -43 19 -54 8 -13 7 -16 -1 -11 -7 4 -4 -4 5 -19 10 -14 13 -26 9 -26 -5 0
-4 -4 3 -8 7 -4 15 -26 17 -48 5 -38 2 -44 -57 -106 -34 -37 -70 -77 -79 -90
-17 -23 -18 -22 -15 46 2 78 20 102 57 79 33 -21 34 4 1 44 -36 44 -39 70 -11
106 11 14 20 31 20 39 0 7 -9 1 -20 -13 -15 -20 -43 -33 -119 -55 l-99 -28 24
-23 c13 -12 24 -30 24 -40 0 -10 2 -65 4 -123 2 -58 -2 -150 -9 -205 -17 -134
-69 -328 -102 -385 -15 -25 -27 -49 -28 -55 0 -15 -64 -145 -71 -145 -3 0 -3
15 1 33 l6 32 -16 -27 c-19 -33 -40 -29 -92 22 -46 44 -121 152 -129 187 -4
14 -2 34 5 46 6 12 15 34 21 50 9 26 30 38 30 17 0 -26 17 -5 30 38 12 37 15
112 15 357 l0 310 -32 68 c-31 66 -32 70 -17 100 12 22 15 45 11 80 -6 51 -25
82 -92 152 -19 21 -35 41 -35 45 0 4 -7 11 -16 14 -12 5 -9 -4 9 -26 15 -18
45 -69 68 -113 40 -76 41 -82 36 -148 -3 -38 0 -106 8 -155 7 -48 16 -128 19
-179 l6 -91 -38 -24 c-20 -12 -48 -30 -62 -38 -94 -59 -179 -117 -200 -139
-43 -45 -130 -164 -130 -178 0 -17 41 -33 83 -33 38 0 112 -21 127 -36 7 -7
12 -91 13 -235 l2 -223 25 -13 c31 -16 361 -18 441 -3 91 17 106 27 135 89 21
45 25 67 22 113 -5 68 -6 67 108 75 65 5 93 2 145 -15 35 -11 98 -26 139 -33
41 -6 95 -18 120 -25 25 -8 106 -28 180 -44 74 -17 171 -41 216 -55 44 -14
137 -36 205 -49 68 -14 157 -37 198 -51 l75 -25 537 0 c515 0 538 1 544 19 3
10 16 69 29 132 13 63 35 159 49 214 78 312 108 485 88 508 -5 7 -63 39 -128
71 -65 32 -127 63 -138 69 -11 6 -47 25 -80 43 -33 17 -96 52 -140 77 -44 24
-125 66 -180 92 -55 26 -131 63 -169 81 -38 19 -77 34 -87 34 -10 0 -21 5 -24
10 -3 6 -23 10 -43 10 -20 0 -53 9 -72 20 -27 16 -30 17 -14 3 12 -10 32 -25
44 -33 70 -47 79 -78 51 -180 -65 -239 -253 -470 -461 -566 -19 -9 -51 -29
-70 -44 -147 -116 -325 -139 -465 -60 -64 37 -86 58 -132 128 -62 92 -82 149
-58 158 8 3 17 19 20 36 l7 29 46 -49 c56 -58 94 -71 113 -35 14 26 37 30 45
8 4 -8 17 -15 30 -15 14 0 41 -7 62 -16 24 -10 71 -16 132 -17 87 -1 98 1 120
21 14 13 34 31 45 41 11 10 41 24 67 31 26 7 56 23 69 36 l22 23 -29 -3 c-16
-2 -31 -5 -34 -6 -19 -8 -47 -2 -57 12 -10 13 -10 22 2 45 8 15 15 35 15 44 0
9 9 24 19 33 11 10 23 31 26 46 3 16 14 31 23 35 14 5 14 7 2 16 -13 8 -13 11
3 20 9 5 17 14 17 20 0 5 22 33 50 62 27 29 50 57 50 63 0 10 66 87 126 146
10 10 15 20 12 23 -5 5 -92 -64 -212 -168 -33 -29 -73 -60 -89 -70 -57 -35
-156 -43 -372 -31 -168 10 -225 18 -225 35 0 5 -7 9 -15 9 -8 0 -30 15 -49 34
-19 19 -37 32 -40 29 -3 -4 -6 1 -6 10 0 10 -4 17 -10 17 -5 0 -6 7 -3 17 4
11 3 14 -5 9 -8 -5 -17 4 -25 23 -7 17 -17 28 -21 24 -5 -5 -5 3 -1 16 5 18 4
22 -6 16 -11 -6 -11 -5 -2 5 6 7 9 18 7 25 -3 7 -1 16 5 20 6 3 11 18 11 32 0
15 3 24 6 20 4 -3 19 0 35 9 20 10 56 14 112 13 83 -1 117 6 117 22 0 5 11 7
24 3 36 -9 85 -9 151 0 33 5 69 10 80 11 11 2 31 8 46 13 29 12 190 6 233 -8
42 -14 66 -12 66 5 0 30 -44 45 -149 50 -57 3 -108 8 -112 11 -16 9 -118 6
-153 -6 -26 -8 -50 -8 -94 0 -43 7 -74 7 -109 0 -26 -6 -82 -12 -123 -14 -69
-2 -88 -7 -139 -42 -2 -2 -6 -17 -10 -35 -5 -26 -12 -33 -36 -36 -17 -2 -47 2
-67 8 -29 9 -38 18 -44 42 -5 22 -2 32 10 39 14 8 14 12 1 38 -8 16 -24 31
-35 35 -11 4 -20 15 -20 26 0 32 -52 130 -66 125 -7 -3 -18 2 -24 10 -7 8 -18
14 -24 14 -8 0 -8 -2 0 -8 6 -4 11 -25 12 -47 l1 -40 -16 40 c-8 22 -19 65
-23 95 -5 30 -13 69 -19 85 l-11 30 5 -35z m168 -462 c30 -46 78 -103 106
-127 28 -25 51 -49 50 -55 0 -6 -28 -24 -62 -41 -45 -22 -63 -36 -65 -52 -2
-13 -7 -23 -12 -23 -21 0 -26 74 -10 159 12 63 8 74 -35 94 -34 16 -35 19 -35
72 0 30 2 55 4 55 2 0 29 -37 59 -82z"/>
<path d="M1668 1943 c-56 -30 -60 -49 -20 -99 l27 -34 100 0 c89 0 106 3 149
26 44 24 52 25 93 14 38 -9 49 -8 70 5 38 26 27 56 -28 77 -45 16 -48 16 -82
-2 -26 -14 -49 -18 -83 -15 -65 7 -124 24 -141 41 -19 19 -29 17 -85 -13z"/>
<path d="M1682 1490 c-11 -17 -9 -23 13 -42 14 -12 31 -23 38 -25 77 -18 117
-22 204 -23 74 0 102 3 100 12 -1 6 15 23 36 36 20 14 37 32 37 40 0 12 -29
13 -177 11 -98 -2 -191 0 -208 4 -24 6 -32 4 -43 -13z"/>
</g>
</svg>
